<?xml version="1.0" encoding="UTF-8"?>
<svg width="192px" height="192px" viewBox="0 0 192 192" version="1.1" xmlns="http://www.w3.org/2000/svg" xmlns:xlink="http://www.w3.org/1999/xlink">
    <title>192x192@2x</title>
    <g id="192x192" stroke="none" stroke-width="1" fill="none" fill-rule="evenodd">
        <path d="M191.264852,157.5 C176.576259,157.5 171.93863,133.303852 166.064852,102.669778 C163.273148,88.1180741 158.125296,61.2546667 153.089444,58.0481481 C148.053593,61.2546667 142.901593,88.1180741 140.114037,102.669778 C134.240259,133.303852 129.60263,157.5 114.909889,157.5 C100.229593,157.5 95.5961111,133.303852 89.7264815,102.673926 C86.9389259,88.1263704 81.7910741,61.2754074 76.7635185,58.0481481 C71.7276667,61.2671111 66.5798148,88.1222222 63.7922593,102.673926 C57.9184815,133.303852 53.285,157.5 38.6005556,157.5 C23.9202593,157.5 19.2826296,133.303852 13.413,102.669778 C10.5715185,87.8525926 5.29092593,60.2757037 0.172111111,57.8946667 L0.450037037,45.5 C15.1303333,45.5 19.7638148,69.6961481 25.6334444,100.326074 C28.421,114.87363 33.5688519,141.724593 38.5964074,144.951852 C43.6281111,141.728741 48.775963,114.877778 51.5635185,100.330222 C57.4372963,69.6961481 62.0707778,45.5 76.7552222,45.5 C91.4355185,45.5 96.0731481,69.6961481 101.942778,100.330222 C104.730333,114.877778 109.874037,141.728741 114.905741,144.951852 C119.941593,141.741185 125.093593,114.877778 127.881148,100.326074 C133.754926,69.692 138.392556,45.5 153.081148,45.5 C167.769741,45.5 172.40737,69.6961481 178.281148,100.330222 C181.12263,115.147407 186.411519,142.732593 191.534481,145.105333 L191.264852,157.5 Z" id="Sine" fill="#000000" fill-rule="nonzero"></path>
    </g>
</svg>